<?xml version="1.0" encoding="UTF-8" standalone="no"?>
<!DOCTYPE svg PUBLIC "-//W3C//DTD SVG 1.1//EN" "http://www.w3.org/Graphics/SVG/1.1/DTD/svg11.dtd">
<svg width="100%" height="100%" viewBox="0 0 158 37" version="1.1" xmlns="http://www.w3.org/2000/svg" xmlns:xlink="http://www.w3.org/1999/xlink" xml:space="preserve" xmlns:serif="http://www.serif.com/" style="fill-rule:evenodd;clip-rule:evenodd;stroke-linejoin:round;stroke-miterlimit:2;">
    <g transform="matrix(1,0,0,1,-15.25,-15.25)">
        <path d="M20.33,38.76L20.33,47.02L25.41,52.1L31.61,52.1L29.76,47.02L25.41,47.02L25.41,38.76L20.33,33.68L25.41,28.59L25.41,20.33L29.76,20.33L31.61,15.25L25.41,15.25L20.33,20.33L20.33,28.59L15.25,33.68L20.33,38.76Z" style="fill-rule:nonzero;"/>
        <path d="M52.1,47.02L47.75,47.02L45.9,52.1L52.1,52.1L57.18,47.02L57.18,38.76L62.26,33.68L57.18,28.59L57.18,20.33L52.1,15.25L45.9,15.25L47.75,20.33L52.1,20.33L52.1,28.59L57.18,33.68L52.1,38.76L52.1,47.02Z" style="fill-rule:nonzero;"/>
        <path d="M69.88,26.45L69.88,20.45L71.42,20.45L71.42,26.45C71.417,26.503 71.415,26.557 71.415,26.61C71.415,28.02 72.575,29.18 73.985,29.18C75.395,29.18 76.555,28.02 76.555,26.61C76.555,26.557 76.553,26.503 76.55,26.45L76.55,20.45L78.1,20.45L78.1,26.45C78.1,28.705 76.245,30.56 73.99,30.56C71.735,30.56 69.88,28.705 69.88,26.45Z" style="fill-rule:nonzero;"/>
        <path d="M86.92,25.17L86.92,30.34L85.4,30.34L85.4,25.5C85.401,25.476 85.402,25.453 85.402,25.429C85.402,24.645 84.756,23.999 83.972,23.999C83.955,23.999 83.937,23.999 83.92,24C83.079,24.036 82.284,24.394 81.7,25L81.7,30.35L80.18,30.35L80.18,25.35C80.184,24.556 80.08,23.766 79.87,23L80.87,22.65L81.38,24C82.156,23.161 83.238,22.67 84.38,22.64C84.414,22.639 84.448,22.638 84.482,22.638C85.82,22.638 86.922,23.739 86.922,25.078C86.922,25.109 86.921,25.139 86.92,25.17Z" style="fill-rule:nonzero;"/>
        <path d="M88.93,20.54C88.929,20.523 88.929,20.507 88.929,20.49C88.929,19.941 89.38,19.49 89.929,19.49C90.477,19.49 90.929,19.941 90.929,20.49C90.929,21.038 90.478,21.489 89.93,21.49C89.9,21.493 89.869,21.495 89.839,21.495C89.34,21.495 88.929,21.084 88.929,20.585C88.929,20.57 88.929,20.555 88.93,20.54ZM89.14,23.17L90.66,22.64L90.66,30.35L89.14,30.35L89.14,23.17Z" style="fill-rule:nonzero;"/>
        <path d="M99.83,22.83L96.67,30.34L95.11,30.34L91.94,22.83L93.61,22.83L95.95,29.07L98.23,22.83L99.83,22.83Z" style="fill-rule:nonzero;"/>
        <path d="M107,27.15L101.81,27.15C101.939,28.397 103.003,29.356 104.257,29.356C104.351,29.356 104.446,29.351 104.54,29.34C105.248,29.317 105.945,29.154 106.59,28.86L106.97,29.86C106.15,30.318 105.229,30.565 104.29,30.58C104.18,30.59 104.071,30.594 103.961,30.594C101.903,30.594 100.211,28.902 100.211,26.844C100.211,26.756 100.214,26.668 100.22,26.58C100.208,26.46 100.202,26.34 100.202,26.219C100.202,24.222 101.845,22.579 103.842,22.579C103.871,22.579 103.901,22.579 103.93,22.58C106.7,22.61 107.57,24.87 107,27.15ZM101.86,26L105.76,26C105.85,24.65 105.19,23.74 103.97,23.74C102.75,23.74 102,24.55 101.86,26Z" style="fill-rule:nonzero;"/>
        <path d="M109.12,25.53C109.12,24.677 109.012,23.827 108.8,23L109.8,22.64L110.34,24.34C110.705,23.356 111.605,22.666 112.65,22.57C112.993,22.564 113.333,22.628 113.65,22.76L113.07,24.41C112.83,24.282 112.562,24.214 112.29,24.21C111.509,24.286 110.841,24.816 110.59,25.56L110.59,30.3L109.08,30.3L109.12,25.53Z" style="fill-rule:nonzero;"/>
        <path d="M114.31,29.38L118.4,24L114.29,24L114.69,22.84L120.33,22.84L120.33,23.84L116.23,29.24L120.54,29.24L120.13,30.4L114.3,30.4L114.31,29.38Z" style="fill-rule:nonzero;"/>
        <path d="M121.94,20.54C121.939,20.523 121.939,20.507 121.939,20.49C121.939,19.941 122.39,19.49 122.939,19.49C123.487,19.49 123.939,19.941 123.939,20.49C123.939,21.038 123.488,21.489 122.94,21.49C122.91,21.493 122.879,21.495 122.849,21.495C122.35,21.495 121.939,21.084 121.939,20.585C121.939,20.57 121.939,20.555 121.94,20.54ZM122.15,23.17L123.67,22.64L123.67,30.35L122.15,30.35L122.15,23.17Z" style="fill-rule:nonzero;"/>
        <path d="M126.5,28.46L126.5,24L125.18,24L125.18,22.83L126.5,22.83L126.5,21L128.02,20.45L128.02,22.79L130.52,22.79L130.52,24L128,24L128,28.2C127.997,28.228 127.996,28.256 127.996,28.284C127.996,28.789 128.411,29.204 128.916,29.204C128.944,29.204 128.972,29.203 129,29.2C129.47,29.18 129.925,29.035 130.32,28.78L130.74,29.89C130.109,30.303 129.374,30.532 128.62,30.55C128.579,30.552 128.539,30.554 128.498,30.554C127.401,30.554 126.498,29.651 126.498,28.554C126.498,28.522 126.499,28.491 126.5,28.46Z" style="fill-rule:nonzero;"/>
        <path d="M139.49,30.09C139.098,30.394 138.617,30.563 138.12,30.57C137.443,30.604 136.857,30.077 136.82,29.4C136.11,30.16 135.11,30.585 134.07,30.57C132.72,30.57 131.76,29.84 131.78,28.57C131.78,27.04 133.4,25.72 136.49,25.93L136.49,25.38C136.496,25.327 136.499,25.274 136.499,25.221C136.499,24.48 135.89,23.871 135.149,23.871C135.096,23.871 135.043,23.874 134.99,23.88C134.137,23.917 133.301,24.124 132.53,24.49L132.11,23.37C133.101,22.886 134.187,22.63 135.29,22.62C135.38,22.61 135.47,22.605 135.56,22.605C136.904,22.605 138.01,23.711 138.01,25.055C138.01,25.13 138.007,25.205 138,25.28L138,28.65C138,29.1 138.16,29.31 138.48,29.31C138.713,29.297 138.936,29.214 139.12,29.07L139.49,30.09ZM136.49,28.41L136.49,27C134.49,26.83 133.29,27.43 133.29,28.46C133.29,29.06 133.76,29.46 134.49,29.46C135.28,29.429 136.016,29.043 136.49,28.41Z" style="fill-rule:nonzero;"/>
        <path d="M70.12,36.48L71.66,36.48L71.66,40.74L76.88,40.74L76.88,36.48L78.41,36.48L78.41,46.35L76.88,46.35L76.88,42L71.66,42L71.66,46.32L70.12,46.32L70.12,36.48Z" style="fill-rule:nonzero;"/>
        <path d="M80.74,41.53C80.74,40.677 80.632,39.827 80.42,39L81.42,38.64L81.96,40.34C82.325,39.356 83.225,38.666 84.27,38.57C84.613,38.564 84.953,38.628 85.27,38.76L84.69,40.41C84.45,40.282 84.182,40.214 83.91,40.21C83.129,40.286 82.461,40.816 82.21,41.56L82.21,46.3L80.74,46.3L80.74,41.53Z" style="fill-rule:nonzero;"/>
        <path d="M93.44,46.09C93.048,46.394 92.567,46.563 92.07,46.57C91.393,46.604 90.807,46.077 90.77,45.4C90.055,46.165 89.047,46.591 88,46.57C86.65,46.57 85.69,45.84 85.71,44.57C85.71,43.04 87.33,41.72 90.42,41.93L90.42,41.38C90.426,41.327 90.429,41.274 90.429,41.221C90.429,40.48 89.82,39.871 89.079,39.871C89.026,39.871 88.973,39.874 88.92,39.88C88.067,39.917 87.231,40.124 86.46,40.49L86.04,39.37C87.031,38.886 88.117,38.63 89.22,38.62C89.337,38.603 89.454,38.594 89.572,38.594C90.911,38.594 92.012,39.696 92.012,41.034C92.012,41.116 92.008,41.198 92,41.28L92,44.65C92,45.1 92.16,45.31 92.48,45.31C92.713,45.297 92.936,45.214 93.12,45.07L93.44,46.09ZM90.44,44.41L90.44,43C88.44,42.83 87.24,43.43 87.24,44.46C87.24,45.06 87.71,45.46 88.44,45.46C89.23,45.429 89.966,45.043 90.44,44.41Z" style="fill-rule:nonzero;"/>
        <path d="M93.86,42.66C93.86,40.27 95.28,38.66 97.4,38.66C98.068,38.657 98.726,38.815 99.32,39.12L99.32,35.79L100.83,35.28L100.83,43.84C100.825,44.621 100.933,45.399 101.15,46.15L100.15,46.51L99.65,45.26C99.048,46.049 98.122,46.527 97.13,46.56C95.39,46.57 93.86,45.23 93.86,42.66ZM99.32,44.25L99.32,40.25C98.827,39.954 98.265,39.795 97.69,39.79C96.36,39.79 95.44,40.9 95.44,42.64C95.44,44.38 96.34,45.29 97.52,45.29C98.251,45.251 98.921,44.864 99.32,44.25Z" style="fill-rule:nonzero;"/>
        <path d="M109.37,43.15L104.18,43.15C104.309,44.397 105.373,45.356 106.627,45.356C106.721,45.356 106.816,45.351 106.91,45.34C107.618,45.317 108.315,45.154 108.96,44.86L109.34,45.86C108.52,46.318 107.599,46.565 106.66,46.58C106.55,46.59 106.441,46.594 106.331,46.594C104.273,46.594 102.581,44.902 102.581,42.844C102.581,42.756 102.584,42.668 102.59,42.58C102.578,42.46 102.572,42.34 102.572,42.219C102.572,40.222 104.215,38.579 106.212,38.579C106.241,38.579 106.271,38.579 106.3,38.58C109,38.61 109.9,40.87 109.37,43.15ZM104.18,42L108.08,42C108.17,40.65 107.51,39.74 106.29,39.74C105.07,39.74 104.36,40.55 104.18,42Z" style="fill-rule:nonzero;"/>
        <path d="M111,42.59C111,40.1 112.5,38.59 114.69,38.59C115.541,38.601 116.382,38.785 117.16,39.13L116.75,40.24C116.173,39.988 115.55,39.855 114.92,39.85C113.54,39.85 112.57,40.85 112.57,42.58C112.57,44.31 113.57,45.29 114.95,45.29C115.643,45.274 116.325,45.11 116.95,44.81L117.34,45.94C116.543,46.323 115.674,46.531 114.79,46.55C112.45,46.57 111,45.07 111,42.59Z" style="fill-rule:nonzero;"/>
        <path d="M122.62,36.48L124.16,36.48L124.16,46.35L122.62,46.35L122.62,36.48ZM130.81,46.35L128.91,46.35L124.62,41.6L128.89,36.49L130.6,36.49L126.31,41.49L130.81,46.35Z" style="fill-rule:nonzero;"/>
        <path d="M131.86,41.53C131.857,40.69 131.749,39.854 131.54,39.04L132.54,38.68L133.08,40.38C133.445,39.396 134.345,38.706 135.39,38.61C135.733,38.604 136.073,38.668 136.39,38.8L135.8,40.45C135.56,40.322 135.292,40.254 135.02,40.25C134.239,40.326 133.571,40.856 133.32,41.6L133.32,46.34L131.81,46.34L131.86,41.53Z" style="fill-rule:nonzero;"/>
        <path d="M144.56,46.09C144.168,46.394 143.687,46.563 143.19,46.57C142.513,46.604 141.927,46.077 141.89,45.4C141.18,46.16 140.18,46.585 139.14,46.57C137.79,46.57 136.83,45.84 136.85,44.57C136.85,43.04 138.47,41.72 141.56,41.93L141.56,41.38C141.566,41.327 141.569,41.274 141.569,41.221C141.569,40.48 140.96,39.871 140.219,39.871C140.166,39.871 140.113,39.874 140.06,39.88C139.207,39.917 138.371,40.124 137.6,40.49L137.18,39.37C138.171,38.886 139.257,38.629 140.36,38.62C140.45,38.61 140.541,38.605 140.631,38.605C141.975,38.605 143.081,39.711 143.081,41.055C143.081,41.133 143.078,41.212 143.07,41.29L143.07,44.66C143.07,45.11 143.24,45.32 143.55,45.32C143.783,45.307 144.006,45.224 144.19,45.08L144.56,46.09ZM141.56,44.41L141.56,43C139.56,42.83 138.36,43.43 138.36,44.46C138.36,45.06 138.83,45.46 139.56,45.46C140.35,45.429 141.086,45.043 141.56,44.41ZM138.85,37.76L138.46,36.76L141.94,35.35L142.39,36.64L138.85,37.76Z" style="fill-rule:nonzero;"/>
        <path d="M145.69,44.83L145.69,35.83L147.2,35.32L147.2,44.69C147.2,45.14 147.36,45.35 147.7,45.35C147.933,45.339 148.157,45.255 148.34,45.11L148.7,46.11C148.256,46.432 147.719,46.601 147.17,46.59C146.27,46.57 145.69,46 145.69,44.83Z" style="fill-rule:nonzero;"/>
        <path d="M149.57,42.59C149.57,40.12 150.99,38.59 153.19,38.59C155.39,38.59 156.82,40.1 156.82,42.59C156.82,45.08 155.4,46.59 153.19,46.59C150.98,46.59 149.57,45.05 149.57,42.59ZM155.21,42.59C155.21,40.69 154.42,39.73 153.21,39.73C152,39.73 151.21,40.73 151.21,42.59C151.21,44.45 151.99,45.44 153.21,45.44C154.43,45.44 155.21,44.48 155.21,42.59Z" style="fill-rule:nonzero;"/>
        <path d="M165.14,38.83L162,46.34L160.44,46.34L157.28,38.83L158.95,38.83L161.29,45.07L163.57,38.83L165.14,38.83Z" style="fill-rule:nonzero;"/>
        <path d="M172.36,43.15L167.17,43.15C167.299,44.397 168.363,45.356 169.617,45.356C169.711,45.356 169.806,45.351 169.9,45.34C170.608,45.317 171.305,45.154 171.95,44.86L172.32,45.86C171.5,46.318 170.579,46.565 169.64,46.58C169.53,46.59 169.421,46.594 169.311,46.594C167.253,46.594 165.561,44.902 165.561,42.844C165.561,42.756 165.564,42.668 165.57,42.58C165.558,42.46 165.552,42.34 165.552,42.219C165.552,40.222 167.195,38.579 169.192,38.579C169.218,38.579 169.244,38.579 169.27,38.58C172,38.61 172.88,40.87 172.36,43.15ZM167.17,42L171.07,42C171.16,40.65 170.5,39.74 169.28,39.74C168.06,39.74 167.35,40.55 167.17,42ZM167.95,37.77L167.56,36.77L171,35.31L171.45,36.6L167.95,37.77Z" style="fill-rule:nonzero;"/>
    </g>
</svg>
